<?xml version="1.0" encoding="UTF-8"?>
<!-- Created with Inkscape (http://www.inkscape.org/) -->
<svg width="48" height="48" version="1.1" viewBox="0 0 48 48" xmlns="http://www.w3.org/2000/svg">
 <g transform="translate(4227.7 1159.3)">
  <path d="m-4691.1 598.05-0.077-0.25-0.3485-1.8416-0.3484-1.8417 0.6206 0.6206 0.6205 0.6206 0.2159 1.471 0.2159 1.4711h-0.823z" fill="#ea5649"/>
  <g transform="matrix(.057736 0 0 .057736 -3980.8 -1091.5)">
   <path d="m-3849.6-999.65a17.357 17.357 0 0 0-17.357 17.357 17.357 17.357 0 0 0 17.357 17.355 17.357 17.357 0 0 0 17.356-17.355 17.357 17.357 0 0 0-17.356-17.357zm-36.943 104.07a23.905 23.905 0 0 0-23.904 23.904 23.905 23.905 0 0 0 23.904 23.906 23.905 23.905 0 0 0 23.904-23.906 23.905 23.905 0 0 0-23.904-23.904zm41.943 106.12a22.113 22.113 0 0 0-22.113 22.113 22.113 22.113 0 0 0 22.113 22.113 22.113 22.113 0 0 0 22.113-22.113 22.113 22.113 0 0 0-22.113-22.113zm-108.61 57.82a34.647 34.647 0 0 0-34.646 34.646 34.647 34.647 0 0 0 34.646 34.646 34.647 34.647 0 0 0 34.646-34.646 34.647 34.647 0 0 0-34.646-34.646zm213.11 119.03c-67.832 32.511-209.2 21.75-316.71 4.2891-11.324-0.8932-23.425 6.1235-28.516 13.133-29.771 53.882-47.02 82.526-78.961 135.31-3.7617 5.1745-1.7046 26.435-0.9668 30.434 4.1888 17.564 15.809 21.057 34.691 21.057h514.6c22.11-6e-5 46.953-28.947 34.201-50.594l-6.3868-10.838c-0.3151-3.099-4.04-3.456-6.8672-3.2656-8.0781 1.7142-14.659 2.4125-22.926 2.4844-68.257-3e-4 -123.59-55.333-123.59-123.59 0.019-6.1666 0.4995-12.323 1.4375-18.418z" fill="#ea5649" />
   <path d="m-3983.2-1078.4-0.8906 202.52-231.4 398.06c-11.085 22.826-10.463 40.382-4.6719 64.533l2.9063 6.4121 2.9082 6.4102 4.3047 6.3633 4.3046 6.3633 11.117 11.117 12 8.1016 4 2.0234 4 2.0254 5 1.709 5 1.7109 12 2.6641c191.18-0.7556 378.93-0.1257 556.65 0l12-2.6641 5-1.7109 5-1.709 4-2.0254 4-2.0234 12-8.1016 11.117-11.117 4.3046-6.3633 4.3047-6.3633 2.9082-6.4102 2.9063-6.4121c5.7914-24.151 6.4134-41.708-4.6719-64.533l-10.527-18.107c29.617-22.578 48.746-58.213 48.746-98.33-3e-4 -68.257-55.333-123.59-123.59-123.59-17.191 5e-5 -33.56 3.517-48.434 9.8594l-97.6-167.89-0.8906-202.52h-20.668v212.35l98.588 168.78a123.59 123.59 0 0 1 10.418-6.5469 123.59 123.59 0 0 1 4.457-1.5586c-41.124 20.07-69.461 62.281-69.461 111.12 2e-4 68.257 55.333 123.59 123.59 123.59 20.016-8e-5 38.903-4.7888 55.627-13.236l11.578 19.822c14.49 41.073-6.1611 72.017-46.705 83.346-185.42-0.3021-370.09-0.01-552.64 0-40.544-11.329-61.196-42.273-46.705-83.346l234.8-401.97v-212.35zm364.72 382.92c55.905 4e-4 101.23 45.321 101.22 101.23-4e-4 55.905-45.32 101.22-101.22 101.22-55.905 7e-4 -101.23-45.319-101.23-101.22-7e-4 -55.906 45.32-101.23 101.23-101.23z" fill="#e2e2e2" />
   <path d="m-3642-542.43-3-1.312-37.263-38.943-0.715-3.2558-0.7151-3.2558 1.2458-6.6408 4.2832-5.4452 6.6-2.7576h7.1957l2.1843 1.0918 2.1842 1.0918 24.394 25.316 9.7791-10 9.7792-10 42.685-43.39 6.9932-2.308 6.8107 1.2777 6.0228 5.0678 1.1474 3.8298 1.1475 3.8298-0.684 3.6462-0.6841 3.6462-10.202 11.4-21.594 22.05-21.594 22.05-10.436 10.829-10.436 10.829-6.5632 2.7423-5.5643-0.0782-3-1.312z" fill="#808080"/>
   <rect x="-4000.2" y="-1158.9" width="251.73" height="84.085" ry="25.641" fill="#008080"/>
  </g>
 </g>
</svg>
